<?xml version="1.0" encoding="UTF-8" standalone="no"?>
<!-- Created with Inkscape (http://www.inkscape.org/) -->

<svg
   width="54.349422mm"
   height="54.349422mm"
   viewBox="0 0 54.349422 54.349422"
   version="1.1"
   id="svg1241"
   sodipodi:docname="check_icon.svg"
   inkscape:version="1.1.2 (0a00cf5339, 2022-02-04)"
   xmlns:inkscape="http://www.inkscape.org/namespaces/inkscape"
   xmlns:sodipodi="http://sodipodi.sourceforge.net/DTD/sodipodi-0.dtd"
   xmlns:xlink="http://www.w3.org/1999/xlink"
   xmlns="http://www.w3.org/2000/svg"
   xmlns:svg="http://www.w3.org/2000/svg">
  <sodipodi:namedview
     id="namedview1243"
     pagecolor="#ffffff"
     bordercolor="#666666"
     borderopacity="1.0"
     inkscape:pageshadow="2"
     inkscape:pageopacity="0.0"
     inkscape:pagecheckerboard="0"
     inkscape:document-units="mm"
     showgrid="false"
     fit-margin-top="0"
     fit-margin-left="0"
     fit-margin-right="0"
     fit-margin-bottom="0"
     inkscape:zoom="2.5906004"
     inkscape:cx="103.64393"
     inkscape:cy="116.18928"
     inkscape:window-width="1920"
     inkscape:window-height="1019"
     inkscape:window-x="0"
     inkscape:window-y="0"
     inkscape:window-maximized="1"
     inkscape:current-layer="layer1" />
  <defs
     id="defs1238">
    <linearGradient
       inkscape:collect="always"
       id="linearGradient2046">
      <stop
         style="stop-color:#1976d2;stop-opacity:1;"
         offset="0"
         id="stop2042" />
      <stop
         style="stop-color:#7b1fa2;stop-opacity:1"
         offset="1"
         id="stop2044" />
    </linearGradient>
    <linearGradient
       inkscape:collect="always"
       xlink:href="#linearGradient2046"
       id="linearGradient2048"
       x1="41.627548"
       y1="172.95332"
       x2="165.33598"
       y2="34.741398"
       gradientUnits="userSpaceOnUse" />
  </defs>
  <g
     inkscape:label="Layer 1"
     inkscape:groupmode="layer"
     id="layer1"
     transform="translate(-67.195299,-151.35211)">
    <path
       id="rect3679-8"
       style="color:#000000;fill:url(#linearGradient2048);stroke-width:3.77953;-inkscape-stroke:none;fill-opacity:1"
       d="M 102.70508 -0.001953125 C 46.043985 -0.001953125 7.5590551e-06 46.047895 0 102.70898 C -1.511811e-05 159.37011 46.043969 205.41406 102.70508 205.41406 C 159.36616 205.41406 205.41605 159.37011 205.41602 102.70898 C 205.41602 46.047895 159.36616 -0.001953125 102.70508 -0.001953125 z M 102.70508 10.583984 C 153.64687 10.583984 194.83008 51.767189 194.83008 102.70898 C 194.83008 153.65082 153.64687 194.83594 102.70508 194.83594 C 51.763268 194.83594 10.585922 153.65082 10.585938 102.70898 C 10.585941 51.767189 51.763283 10.583984 102.70508 10.583984 z M 89.800781 47.744141 C 66.54926 47.744141 47.613281 66.680138 47.613281 89.931641 L 47.613281 115.48828 C 47.613281 138.73982 66.54926 157.67578 89.800781 157.67578 L 115.61523 157.67578 C 138.86675 157.67578 157.80273 138.73982 157.80273 115.48828 L 157.80273 89.931641 C 157.80273 66.680138 138.86675 47.744141 115.61523 47.744141 L 89.800781 47.744141 z M 89.800781 61.724609 L 115.61523 61.724609 C 131.36137 61.724609 143.81445 74.185524 143.81445 89.931641 L 143.81445 115.48828 C 143.81445 131.23444 131.36137 143.69336 115.61523 143.69336 L 89.800781 143.69336 C 74.054638 143.69336 61.601562 131.23444 61.601562 115.48828 L 61.601562 89.931641 C 61.601562 74.185524 74.054638 61.724609 89.800781 61.724609 z M 126.54688 77.878906 A 6.992126 6.992126 0 0 0 122.10352 79.90625 L 93.742188 108.26758 L 83.326172 97.851562 A 6.992126 6.992126 0 0 0 73.443359 97.851562 A 6.992126 6.992126 0 0 0 73.443359 107.74414 L 88.796875 123.09766 A 6.9928252 6.9928252 0 0 0 98.689453 123.09766 L 131.98828 89.791016 A 6.992126 6.992126 0 0 0 131.98828 79.90625 A 6.992126 6.992126 0 0 0 126.54688 77.878906 z "
       transform="matrix(0.26458333,0,0,0.26458333,67.195299,151.35211)" />
  </g>
</svg>
